<mxfile host="app.diagrams.net" modified="2022-01-15T08:51:55.268Z" agent="5.0 (Windows)" etag="kw8EYtDZoMuZK3-jLrOx" version="16.2.7" type="github">
  <diagram id="Ie1QT5mQ5Ervn-aYkjvt" name="Page-1">
    <mxGraphModel dx="942" dy="572" grid="1" gridSize="10" guides="1" tooltips="1" connect="1" arrows="1" fold="1" page="0" pageScale="1" pageWidth="827" pageHeight="1169" math="0" shadow="0">
      <root>
        <mxCell id="0" />
        <mxCell id="1" parent="0" />
        <mxCell id="rLdGX6JDhPVMlcY9tJA1-8" value="" style="swimlane;startSize=0;gradientColor=#ffffff;swimlaneFillColor=default;" vertex="1" parent="1">
          <mxGeometry x="120" y="190" width="360" height="400" as="geometry" />
        </mxCell>
        <mxCell id="rLdGX6JDhPVMlcY9tJA1-4" value="Perception" style="rounded=0;whiteSpace=wrap;html=1;" vertex="1" parent="rLdGX6JDhPVMlcY9tJA1-8">
          <mxGeometry x="116" y="80" width="100" height="50" as="geometry" />
        </mxCell>
        <mxCell id="rLdGX6JDhPVMlcY9tJA1-2" value="Localization" style="rounded=0;whiteSpace=wrap;html=1;" vertex="1" parent="rLdGX6JDhPVMlcY9tJA1-8">
          <mxGeometry x="116" y="20" width="100" height="50" as="geometry" />
        </mxCell>
        <mxCell id="rLdGX6JDhPVMlcY9tJA1-6" value="HD MAP" style="rounded=0;whiteSpace=wrap;html=1;" vertex="1" parent="rLdGX6JDhPVMlcY9tJA1-8">
          <mxGeometry x="240" y="20" width="100" height="50" as="geometry" />
        </mxCell>
        <mxCell id="rLdGX6JDhPVMlcY9tJA1-10" value="Routing" style="rounded=0;whiteSpace=wrap;html=1;" vertex="1" parent="rLdGX6JDhPVMlcY9tJA1-8">
          <mxGeometry x="240" y="80" width="100" height="50" as="geometry" />
        </mxCell>
        <mxCell id="rLdGX6JDhPVMlcY9tJA1-11" value="Prediction" style="rounded=0;whiteSpace=wrap;html=1;" vertex="1" parent="rLdGX6JDhPVMlcY9tJA1-8">
          <mxGeometry x="116" y="140" width="100" height="50" as="geometry" />
        </mxCell>
        <mxCell id="rLdGX6JDhPVMlcY9tJA1-12" value="Motion Planning" style="rounded=0;whiteSpace=wrap;html=1;" vertex="1" parent="rLdGX6JDhPVMlcY9tJA1-8">
          <mxGeometry x="240" y="140" width="100" height="50" as="geometry" />
        </mxCell>
        <mxCell id="rLdGX6JDhPVMlcY9tJA1-38" value="" style="shape=mxgraph.signs.healthcare.brain;html=1;pointerEvents=1;fillColor=#000000;strokeColor=none;verticalLabelPosition=bottom;verticalAlign=top;align=center;sketch=0;" vertex="1" parent="rLdGX6JDhPVMlcY9tJA1-8">
          <mxGeometry x="30" y="30" width="70" height="60" as="geometry" />
        </mxCell>
        <mxCell id="rLdGX6JDhPVMlcY9tJA1-5" value="Control" style="rounded=0;whiteSpace=wrap;html=1;" vertex="1" parent="rLdGX6JDhPVMlcY9tJA1-8">
          <mxGeometry x="216" y="300" width="100" height="50" as="geometry" />
        </mxCell>
        <mxCell id="rLdGX6JDhPVMlcY9tJA1-37" value="" style="shape=mxgraph.signs.transportation.car_2;html=1;pointerEvents=1;fillColor=#000000;strokeColor=none;verticalLabelPosition=bottom;verticalAlign=top;align=center;sketch=0;" vertex="1" parent="rLdGX6JDhPVMlcY9tJA1-8">
          <mxGeometry x="40" y="360" width="220" height="70" as="geometry" />
        </mxCell>
        <mxCell id="rLdGX6JDhPVMlcY9tJA1-42" value="Traffic Rule Verification" style="rounded=1;whiteSpace=wrap;html=1;gradientColor=#ffffff;" vertex="1" parent="rLdGX6JDhPVMlcY9tJA1-8">
          <mxGeometry x="60" y="220" width="280" height="60" as="geometry" />
        </mxCell>
        <mxCell id="rLdGX6JDhPVMlcY9tJA1-44" value="" style="aspect=fixed;perimeter=ellipsePerimeter;html=1;align=center;shadow=0;dashed=0;fontColor=#4277BB;labelBackgroundColor=#ffffff;fontSize=12;spacingTop=3;image;image=img/lib/ibm/vpc/Rules.svg;gradientColor=#ffffff;" vertex="1" parent="rLdGX6JDhPVMlcY9tJA1-8">
          <mxGeometry x="270" y="225" width="50" height="50" as="geometry" />
        </mxCell>
      </root>
    </mxGraphModel>
  </diagram>
</mxfile>
